# xmcd
#
# Track frame offsets: 
#        150
#        1557
#        24049
#        46465
#        60127
#        64315
#        78838
#        99328
#        119473
#        136144
#        150965
#        167510
#        195484
#        196385
#        217562
#        233870
#        264865
#        283269
#
# Disc length: 4004 seconds
#
# Revision: 2
# Processed by: cddbd v1.5.2PL0 Copyright (c) Steve Scherf et al.
# Submitted via: ExactAudioCopyFreeDBPlugin 1.0
#
DISCID=d00fa212
DTITLE=Klaus Lage - Alleingang
DYEAR=2011
DGENRE=A Cappella
TTITLE0=Begrüßung
TTITLE1=Wenn das alles ist
TTITLE2=Wieder zuhaus
TTITLE3=Nach oben
TTITLE4=Ansage
TTITLE5=In den Schluchten deines Ichs
TTITLE6=Fang neu an
TTITLE7=Jeden Tag
TTITLE8=Monopoli
TTITLE9=Verdammter Kerl
TTITLE10=Pappsatt
TTITLE11=1001 Nacht
TTITLE12=Ansage 2
TTITLE13=Traumschiff
TTITLE14=Was wenn Gott
TTITLE15=Mit meinen Augen
TTITLE16=Mercedes Benz
TTITLE17=Bonus: Der Weg ist lang
EXTD=
EXTT0=
EXTT1=
EXTT2=
EXTT3=
EXTT4=
EXTT5=
EXTT6=
EXTT7=
EXTT8=
EXTT9=
EXTT10=
EXTT11=
EXTT12=
EXTT13=
EXTT14=
EXTT15=
EXTT16=
EXTT17=
PLAYORDER=
